# xmcd CD database file
#
# Track frame offsets:
#	150
#	20474
#	42474
#	60664
#
# Disc length: 999 seconds
#
# Revision: 0
# Processed by: cddbd v1.5.1PL0 Copyright (c) Steve Scherf et al.
# Submitted via: CDex 1.51
#
DISCID=2e03e504
DTITLE=女の子プロジェクト - 夏だよ！
DYEAR=2005
DGENRE=Vocal
TTITLE0=はじけるっ 夏だよ！
TTITLE1=Carry on.
TTITLE2=素直になれないね
TTITLE3=天使の見る夢
EXTD=YEAR: 2005
EXTT0=
EXTT1=
EXTT2=
EXTT3=
PLAYORDER=
